# xmcd CD database file
#
# Track frame offsets:
#	150
#	13933
#	38292
#	51832
#	77348
#	91044
#	108418
#	120719
#	135167
#	146838
#	163663
#	175867
#	220658
#	235073
#	266956
#	281889
#
# Disc length: 4034 seconds
#
# Revision: 0
# Processed by: cddbd v1.5.1PL0 Copyright (c) Steve Scherf et al.
# Submitted via: CDex 1.51
#
DISCID=d40fc010
DTITLE=Miles Davis - Conception CD1/2
DYEAR=2003
DGENRE=Jazz
TTITLE0=Moose The Mooche
TTITLE1=It's Only A Papermoon
TTITLE2=Ornithology
TTITLE3=Denial
TTITLE4=Night In Tunisia
TTITLE5=Tune Up
TTITLE6=Chasin' The Bird
TTITLE7=Donna
TTITLE8=Milestones
TTITLE9=Yesterdays
TTITLE10=Half Nelson
TTITLE11=Bluing
TTITLE12=Jeru
TTITLE13='Round Midnight
TTITLE14=Moon Dreams
TTITLE15=How Deep Is The Ocean
EXTD=YEAR: 2003
EXTT0=
EXTT1=
EXTT2=
EXTT3=
EXTT4=
EXTT5=
EXTT6=
EXTT7=
EXTT8=
EXTT9=
EXTT10=
EXTT11=
EXTT12=
EXTT13=
EXTT14=
EXTT15=
PLAYORDER=
